<svg width="84" height="42" viewBox="0 0 84 42" fill="none" xmlns="http://www.w3.org/2000/svg">
<g clip-path="url(#clip0_3801_212)">
<path fill-rule="evenodd" clip-rule="evenodd" d="M65.6091 9.98308C67.2971 10.1769 69.2103 10.2738 71.3002 10.1285C73.0204 10.0154 74.6441 9.74077 76.1393 9.40154C77.9238 8.98154 78.5186 6.72 77.1682 5.47615C76.9913 5.31461 76.8145 5.15308 76.6376 5.00769C67.8438 -2.52 54.6449 -1.43769 47.1693 7.39846L45.0794 9.85385L40.8673 14.8292L29.4529 28.3177L21.1896 38.1231C19.8552 39.69 21.1092 42.1131 23.1509 41.8869C28.2794 41.3377 33.2149 38.8662 36.8321 34.6177L39.9509 30.9185L43.118 27.1708L54.5324 13.6823C57.3297 10.3546 61.6543 9.06231 65.6091 9.98308ZM36.816 7.38231C36.0926 6.54231 35.3048 5.73461 34.4367 4.99154C25.6428 -2.52 12.4439 -1.43769 4.98443 7.39846C-2.49117 16.2346 -1.41404 29.4969 7.37983 36.9923C8.24797 37.7354 9.16433 38.3977 10.0968 38.9631C11.9938 40.1262 14.4696 39.7062 15.9165 37.9938L16.2702 37.5738C18.0868 35.4254 17.5563 32.1462 15.1448 30.6923C14.6143 30.3692 14.1159 30.0138 13.6336 29.5938C8.85888 25.5069 8.31227 18.27 12.4761 13.5046C16.4631 8.94923 23.4082 8.38384 28.0543 12.2285C28.5848 12.6646 29.0671 13.1492 29.5012 13.6662C31.3339 15.8308 34.6457 15.8631 36.4784 13.6985L36.8321 13.2785C38.2468 11.5985 38.2629 9.07846 36.816 7.38231ZM77.8273 12.4708C80.3352 11.9538 82.811 13.5208 83.4059 16.0246C84.9331 22.3408 83.5184 29.2708 79.017 34.5854C71.5414 43.4377 58.3586 44.52 49.5647 37.0085C48.7609 36.33 48.0214 35.5869 47.3461 34.8115C45.8028 33.0346 45.7706 30.3854 47.2818 28.5923L47.4105 28.4469C49.2914 26.2177 52.6996 26.25 54.6128 28.4469C54.9664 28.8669 55.3683 29.2546 55.8024 29.6262C60.6736 33.7938 68.0367 33.0508 72.0076 27.9138C74.1458 25.1354 74.8049 21.5815 74.0332 18.3508C73.4062 15.7015 75.0461 13.0523 77.6987 12.5031C77.7469 12.5031 77.7791 12.4869 77.8273 12.4708Z" fill="#47B6AA"/>
</g>
<defs>
<clipPath id="clip0_3801_212">
<rect width="84" height="42" fill="white"/>
</clipPath>
</defs>
</svg>
